<?xml version="1.0" standalone="no"?>
<!DOCTYPE svg PUBLIC "-//W3C//DTD SVG 20010904//EN"
 "http://www.w3.org/TR/2001/REC-SVG-20010904/DTD/svg10.dtd">
<svg version="1.0" xmlns="http://www.w3.org/2000/svg"
 width="150.000000pt" height="150.000000pt" viewBox="0 0 150.000000 150.000000"
 preserveAspectRatio="xMidYMid meet">
<metadata>
Created by potrace 1.14, written by Peter Selinger 2001-2017
</metadata>
<g transform="translate(0.000000,150.000000) scale(0.100000,-0.100000)"
fill="#000000" stroke="none">
<path d="M888 979 c-35 -20 -15 -69 27 -69 41 0 58 36 29 64 -18 18 -32 20
-56 5z"/>
<path d="M1090 973 c-34 -6 -70 -42 -70 -70 0 -14 -6 -23 -15 -23 -10 0 -15
-11 -15 -35 0 -24 5 -35 15 -35 12 0 15 -17 15 -90 l0 -90 35 0 35 0 0 90 c0
83 1 90 20 90 16 0 20 7 20 35 0 28 -4 35 -20 35 -11 0 -20 5 -20 11 0 6 9 13
20 16 15 4 20 14 20 39 0 19 -3 33 -7 33 -5 -1 -19 -4 -33 -6z"/>
<path d="M90 785 l0 -155 85 0 85 0 0 30 c0 29 -1 30 -50 30 l-50 0 0 125 0
125 -35 0 -35 0 0 -155z"/>
<path d="M556 928 c4 -7 25 -39 46 -70 21 -31 38 -62 38 -68 0 -6 -15 -35 -33
-63 -64 -100 -64 -97 -15 -97 41 0 44 2 67 45 13 25 27 45 31 45 5 0 21 -20
37 -45 26 -42 31 -45 71 -45 32 0 41 3 36 13 -4 6 -24 37 -44 67 -20 30 -39
60 -43 66 -3 6 14 43 38 82 25 40 45 74 45 77 0 3 -18 5 -40 5 -36 0 -41 -4
-66 -46 l-27 -46 -30 46 c-28 43 -32 46 -74 46 -33 0 -42 -3 -37 -12z"/>
<path d="M351 867 c-81 -41 -87 -183 -10 -222 70 -37 179 3 179 64 0 17 -66
13 -80 -4 -23 -28 -80 -13 -80 22 0 10 22 13 85 13 84 0 85 0 85 25 0 85 -101
143 -179 102z m87 -59 c25 -25 13 -38 -33 -38 -30 0 -45 4 -45 13 0 19 21 37
45 37 12 0 26 -5 33 -12z"/>
<path d="M880 755 l0 -125 35 0 35 0 0 125 0 125 -35 0 -35 0 0 -125z"/>
<path d="M1143 868 c2 -7 26 -61 52 -120 l48 -108 -27 -59 c-14 -32 -26 -61
-26 -65 0 -3 17 -6 38 -6 l39 0 74 177 c41 97 76 181 78 185 1 5 -16 8 -40 6
l-43 -3 -27 -75 c-21 -56 -30 -70 -34 -55 -4 11 -17 45 -29 75 -22 54 -23 55
-65 58 -33 3 -42 0 -38 -10z"/>
</g>
</svg>
