<svg xmlns="http://www.w3.org/2000/svg" width="71.283" height="71.261" viewBox="0 0 71.283 71.261"><defs><style>.a{fill:#a91722;}</style></defs><path d="M3.825,67.467a12.138,12.138,0,0,0,10.391,5.793H61.047A12.215,12.215,0,0,0,71.972,55.583L48.556,8.752a12.215,12.215,0,0,0-21.85,0L3.29,55.583A12.138,12.138,0,0,0,3.825,67.467Zm1.4-10.918L28.638,9.718a10.055,10.055,0,0,1,17.987,0L70.04,56.549A10.055,10.055,0,0,1,61.047,71.1H14.216A10.055,10.055,0,0,1,5.222,56.549Z" transform="translate(-1.99 -2)"/><path class="a" d="M35.4,49.708a5.282,5.282,0,0,0,5.276-5.276V23.544a5.276,5.276,0,0,0-10.552,0V44.432A5.282,5.282,0,0,0,35.4,49.708ZM32.282,23.544a3.117,3.117,0,0,1,6.233,0V44.432a3.117,3.117,0,0,1-6.233,0ZM35.4,62.754a5.4,5.4,0,1,0-5.4-5.4A5.4,5.4,0,0,0,35.4,62.754Zm0-8.638a3.239,3.239,0,1,1-3.239,3.239A3.243,3.243,0,0,1,35.4,54.117Z" transform="translate(0.243 -0.703)"/></svg>