<svg xmlns="http://www.w3.org/2000/svg" width="14.398" height="14.416" viewBox="0 0 14.398 14.416"><defs><style>.a{fill:#38394e;}</style></defs><path class="a" d="M3.3,5.776a1.061,1.061,0,0,1,.27-.576l2.16-2.16q.252-.216.378.072L7.851,6.388a.471.471,0,0,1-.09.558l-.792.792a.9.9,0,0,0-.252.558,2.748,2.748,0,0,0,.558,1.386,11.836,11.836,0,0,0,1.1,1.441l.558.575c.168.168.384.375.649.621a10.867,10.867,0,0,0,1.3.972,2.92,2.92,0,0,0,1.431.6.784.784,0,0,0,.576-.234l.937-.936a.4.4,0,0,1,.539-.072l3.151,1.854a.263.263,0,0,1,.144.189.23.23,0,0,1-.072.207l-2.16,2.16a1.058,1.058,0,0,1-.575.269,4.355,4.355,0,0,1-1.99-.243,9,9,0,0,1-2.051-.981q-.945-.612-1.755-1.241t-1.3-1.08l-.468-.451q-.18-.18-.477-.5T5.781,11.6A18.078,18.078,0,0,1,4.5,9.79a10.553,10.553,0,0,1-.936-2.007A4.27,4.27,0,0,1,3.3,5.776Z" transform="translate(-3.267 -2.947)"/></svg>